├ÉΓÇô├É┬░├É┬╜├æΓé¼: Heavy Metal
├É┬í├æΓÇÜ├æΓé¼├É┬░├É┬╜├É┬░-├É┬┐├æΓé¼├É┬╛├É┬╕├É┬╖├É┬▓├É┬╛├É┬┤├É┬╕├æΓÇÜ├É┬╡├É┬╗├æ┼Æ ├É┬┤├É┬╕├æ┬ü├É┬║├É┬░: UK. London
├ÉΓÇ£├É┬╛├É┬┤ ├É┬╕├É┬╖├É┬┤├É┬░├É┬╜├É┬╕├æ┬Å ├É┬┤├É┬╕├æ┬ü├É┬║├É┬░: 1999
├É╦£├É┬╖├É┬┤├É┬░├æΓÇÜ├É┬╡├É┬╗├æ┼Æ (├É┬╗├É┬╡├É┬╣├É┬▒├É┬╗): FlashBackWorldProductions
├É┬¥├É┬╛├É┬╝├É┬╡├æΓé¼ ├É┬┐├É┬╛ ├É┬║├É┬░├æΓÇÜ├É┬░├É┬╗├É┬╛├É┬│├æ╞Æ: Flash 06.91.0151
├É┬í├æΓÇÜ├æΓé¼├É┬░├É┬╜├É┬░: UK.
├É┬É├æ╞Æ├É┬┤├É┬╕├É┬╛ ├É┬║├É┬╛├É┬┤├É┬╡├É┬║: FLAC (*.flac)
├É┬ó├É┬╕├É┬┐ ├æΓé¼├É┬╕├É┬┐├É┬░: tracks
├ÉΓÇÿ├É┬╕├æΓÇÜ├æΓé¼├É┬╡├É┬╣├æΓÇÜ ├É┬░├æ╞Æ├É┬┤├É┬╕├É┬╛: lossless
├É┼╕├æΓé¼├É┬╛├É┬┤├É┬╛├É┬╗├É┬╢├É┬╕├æΓÇÜ├É┬╡├É┬╗├æ┼Æ├É┬╜├É┬╛├æ┬ü├æΓÇÜ├æ┼Æ: 66:53
├É╦£├æ┬ü├æΓÇÜ├É┬╛├æΓÇí├É┬╜├É┬╕├É┬║ (├æΓé¼├É┬╡├É┬╗├É┬╕├É┬╖├É┬╡├æΓé¼): ├É┬í├É┬╛├É┬▒├æ┬ü├æΓÇÜ├É┬▓├É┬╡├É┬╜├É┬╜├É┬░├æ┬Å ├É┬║├É┬╛├É┬╗├É┬╗├É┬╡├É┬║├æΓÇá├É┬╕├æ┬Å
├É┬¥├É┬░├É┬╗├É┬╕├æΓÇí├É┬╕├É┬╡ ├æ┬ü├É┬║├É┬░├É┬╜├É┬╛├É┬▓ ├É┬▓ ├æ┬ü├É┬╛├É┬┤├É┬╡├æΓé¼├É┬╢├É┬╕├É┬╝├É┬╛├É┬╝ ├æΓé¼├É┬░├É┬╖├É┬┤├É┬░├æΓÇí├É┬╕: ├É┬╜├É┬╡├æΓÇÜ
├É┬ó├æΓé¼├É┬╡├É┬║├É┬╗├É┬╕├æ┬ü├æΓÇÜ:
JUDAS PRIEST
1982.12.12. USA. Memphis. Tennessie. ARIZONA


Title CD "Metal Gods"


01. The Hellion / Electri Eye
02. Riding On The Wind
03. Heading Out To The Highway
04. Metal Gods
05. Bloodstone
06. Breaking The Law
07. Diamonds And Rust
08. Screaming For Vengeance
09. You've Got Another Thing Comin'
10. The Sinner
11. Desert Plains
12. The Ripper
13. Living After Midnight
14. The Green Manalishi (with the Two Pronged Clown)
15. Hell Bent For Leather


Total Running Time 66:53

ab48215ef572d68b46f1d0255408a922 *???\1982.12.12. USA. AZ. Tennessie. Memphis\01. JUDAS PRIEST ├óΓé¼ΓÇ£ 01. The Hellion , Electri Eye.flac
8025957d9c9d56c001806487070f163e *???\1982.12.12. USA. AZ. Tennessie. Memphis\02. JUDAS PRIEST ├óΓé¼ΓÇ£ 02. Riding On The Wind.flac
663d348cf04496b6525985ace5febae6 *???\1982.12.12. USA. AZ. Tennessie. Memphis\03. JUDAS PRIEST ├óΓé¼ΓÇ£ 03. Heading Out To The Highway.flac
2b70a01e35be537d916d0914b06d5d44 *???\1982.12.12. USA. AZ. Tennessie. Memphis\04. JUDAS PRIEST ├óΓé¼ΓÇ£ 04. Metal Gods.flac
917f1d5b89690b419e0dc5a16ab7c7ee *???\1982.12.12. USA. AZ. Tennessie. Memphis\05. JUDAS PRIEST ├óΓé¼ΓÇ£ 05. Bloodstone.flac
3b93da2c1e41da39c0f429ffb75c92ea *???\1982.12.12. USA. AZ. Tennessie. Memphis\06. JUDAS PRIEST ├óΓé¼ΓÇ£ 06. Breaking The Law.flac
7ea76c400f93c5c593e2f8b2e5a87796 *???\1982.12.12. USA. AZ. Tennessie. Memphis\07. JUDAS PRIEST ├óΓé¼ΓÇ£ 07. Diamonds And Rust.flac
57ff21e00c1732cd6694ced504cc1852 *???\1982.12.12. USA. AZ. Tennessie. Memphis\08. JUDAS PRIEST ├óΓé¼ΓÇ£ 08. Screaming For Vengeance.flac
5c463d8e47452003a136dbd34dc20899 *???\1982.12.12. USA. AZ. Tennessie. Memphis\09. JUDAS PRIEST ├óΓé¼ΓÇ£ 09. You've Got Another Thing Comin'.flac
cb97b953453324cb903a474c1caaf2ab *???\1982.12.12. USA. AZ. Tennessie. Memphis\10. JUDAS PRIEST ├óΓé¼ΓÇ£ 10. The Sinner.flac
931e9eb402f7ae09c865ec33b271e2b9 *???\1982.12.12. USA. AZ. Tennessie. Memphis\11. JUDAS PRIEST ├óΓé¼ΓÇ£ 11. Desert Plains.flac
79c91f28eda429d1cc75cf5065132a39 *???\1982.12.12. USA. AZ. Tennessie. Memphis\12. JUDAS PRIEST ├óΓé¼ΓÇ£ 12. The Ripper.flac
ecf0295dd7039c9c8bbf22d13042b9c1 *???\1982.12.12. USA. AZ. Tennessie. Memphis\13. JUDAS PRIEST ├óΓé¼ΓÇ£ 13. Living After Midnight.flac
3b2ec770f043cbba68ac7d6f5aee7b45 *???\1982.12.12. USA. AZ. Tennessie. Memphis\14. JUDAS PRIEST ├óΓé¼ΓÇ£ 14. The Green Manalishi (with the Two Pronged Clown).flac
cc42fa17757a8325cf44e42027c115dc *???\1982.12.12. USA. AZ. Tennessie. Memphis\15. JUDAS PRIEST ├óΓé¼ΓÇ£ 15. Hell Bent For Leather.flac
683f34cbacbfaf1798fcf785ec2a86ef *???\1982.12.12. USA. AZ. Tennessie. Memphis\1982.12.12. USA. AZ. Tennessie. Memphis.cue
8f33235a0a95dce3ad2e945e983c698a *???\1982.12.12. USA. AZ. Tennessie. Memphis\1982.12.12. USA. AZ. Tennessie. Memphis.log
fc41cab21320bbe9564b9014b85f6d5c *???\1982.12.12. USA. AZ. Tennessie. Memphis\1982.12.12. USA. AZ. Tennessie. Memphis.md5
8f33235a0a95dce3ad2e945e983c698a *???\1982.12.12. USA. AZ. Tennessie. Memphis\JUDAS PRIEST - 1982.12.12. USA. AZ. Tennessie. Memphis.log

Exact Audio Copy V1.0 beta 1 from 15. November 2010

EAC extraction logfile from 12. March 2011, 4:48

JUDAS PRIEST / 1982.12.12. USA. AZ. Tennessie. Memphis

Used drive  : HL-DT-STDVD-RAM GH22NP20   Adapter: 0  ID: 0

Read mode               : Secure
Utilize accurate stream : Yes
Defeat audio cache      : Yes
Make use of C2 pointers : No

Read offset correction                      : 0
Overread into Lead-In and Lead-Out          : No
Fill up missing offset samples with silence : Yes
Delete leading and trailing silent blocks   : Yes
Null samples used in CRC calculations       : No
Used interface                              : Native Win32 interface for Win NT & 2000
Gap handling                                : Not detected, thus appended to previous track

Used output format : Internal WAV Routines
Sample format      : 44.100 Hz; 16 Bit; Stereo


TOC of the extracted CD

     Track |   Start  |  Length  | Start sector | End sector 
    ---------------------------------------------------------
        1  |  0:00.00 |  4:12.72 |         0    |    18971   
        2  |  4:12.72 |  3:07.55 |     18972    |    33051   
        3  |  7:20.52 |  4:32.33 |     33052    |    53484   
        4  | 11:53.10 |  4:10.70 |     53485    |    72304   
        5  | 16:04.05 |  4:21.22 |     72305    |    91901   
        6  | 20:25.27 |  2:33.50 |     91902    |   103426   
        7  | 22:59.02 |  3:54.05 |    103427    |   120981   
        8  | 26:53.07 |  4:21.20 |    120982    |   140576   
        9  | 31:14.27 |  7:23.43 |    140577    |   173844   
       10  | 38:37.70 |  8:11.22 |    173845    |   210691   
       11  | 46:49.17 |  6:03.63 |    210692    |   237979   
       12  | 52:53.05 |  2:58.70 |    237980    |   251399   
       13  | 55:52.00 |  4:35.47 |    251400    |   272071   
       14  | 60:27.47 |  6:15.45 |    272072    |   300241   
       15  | 66:43.17 |  5:04.58 |    300242    |   323099   


Track  1

     Filename C:\├É┼ô├É┬╛├æΓÇÿ\1982.12.12. USA. AZ. Tennessie. Memphis\01. JUDAS PRIEST ├óΓé¼ΓÇ£ 01. The Hellion , Electri Eye.wav

     Peak level 97.4 %
     Extraction speed 1.6 X
     Track quality 100.0 %
     Test CRC D675B277
     Copy CRC D675B277
     Copy OK

Track  2

     Filename C:\├É┼ô├É┬╛├æΓÇÿ\1982.12.12. USA. AZ. Tennessie. Memphis\02. JUDAS PRIEST ├óΓé¼ΓÇ£ 02. Riding On The Wind.wav

     Peak level 94.8 %
     Extraction speed 1.7 X
     Track quality 100.0 %
     Test CRC E814AE2D
     Copy CRC E814AE2D
     Copy OK

Track  3

     Filename C:\├É┼ô├É┬╛├æΓÇÿ\1982.12.12. USA. AZ. Tennessie. Memphis\03. JUDAS PRIEST ├óΓé¼ΓÇ£ 03. Heading Out To The Highway.wav

     Peak level 95.3 %
     Extraction speed 1.9 X
     Track quality 100.0 %
     Test CRC 9617E7DC
     Copy CRC 9617E7DC
     Copy OK

Track  4

     Filename C:\├É┼ô├É┬╛├æΓÇÿ\1982.12.12. USA. AZ. Tennessie. Memphis\04. JUDAS PRIEST ├óΓé¼ΓÇ£ 04. Metal Gods.wav

     Peak level 95.2 %
     Extraction speed 2.1 X
     Track quality 100.0 %
     Test CRC 9A7095AE
     Copy CRC 9A7095AE
     Copy OK

Track  5

     Filename C:\├É┼ô├É┬╛├æΓÇÿ\1982.12.12. USA. AZ. Tennessie. Memphis\05. JUDAS PRIEST ├óΓé¼ΓÇ£ 05. Bloodstone.wav

     Peak level 97.1 %
     Extraction speed 2.2 X
     Track quality 100.0 %
     Test CRC D82055F2
     Copy CRC D82055F2
     Copy OK

Track  6

     Filename C:\├É┼ô├É┬╛├æΓÇÿ\1982.12.12. USA. AZ. Tennessie. Memphis\06. JUDAS PRIEST ├óΓé¼ΓÇ£ 06. Breaking The Law.wav

     Peak level 95.4 %
     Extraction speed 2.1 X
     Track quality 100.0 %
     Test CRC 4BFD60BA
     Copy CRC 4BFD60BA
     Copy OK

Track  7

     Filename C:\├É┼ô├É┬╛├æΓÇÿ\1982.12.12. USA. AZ. Tennessie. Memphis\07. JUDAS PRIEST ├óΓé¼ΓÇ£ 07. Diamonds And Rust.wav

     Peak level 96.4 %
     Extraction speed 2.4 X
     Track quality 100.0 %
     Test CRC 2ADCC8CC
     Copy CRC 2ADCC8CC
     Copy OK

Track  8

     Filename C:\├É┼ô├É┬╛├æΓÇÿ\1982.12.12. USA. AZ. Tennessie. Memphis\08. JUDAS PRIEST ├óΓé¼ΓÇ£ 08. Screaming For Vengeance.wav

     Peak level 94.9 %
     Extraction speed 2.5 X
     Track quality 100.0 %
     Test CRC 49D838E0
     Copy CRC 49D838E0
     Copy OK

Track  9

     Filename C:\├É┼ô├É┬╛├æΓÇÿ\1982.12.12. USA. AZ. Tennessie. Memphis\09. JUDAS PRIEST ├óΓé¼ΓÇ£ 09. You've Got Another Thing Comin'.wav

     Peak level 96.5 %
     Extraction speed 2.8 X
     Track quality 100.0 %
     Test CRC 4325666C
     Copy CRC 4325666C
     Copy OK

Track 10

     Filename C:\├É┼ô├É┬╛├æΓÇÿ\1982.12.12. USA. AZ. Tennessie. Memphis\10. JUDAS PRIEST ├óΓé¼ΓÇ£ 10. The Sinner.wav

     Peak level 96.7 %
     Extraction speed 3.1 X
     Track quality 100.0 %
     Test CRC 38DD51E1
     Copy CRC 38DD51E1
     Copy OK

Track 11

     Filename C:\├É┼ô├É┬╛├æΓÇÿ\1982.12.12. USA. AZ. Tennessie. Memphis\11. JUDAS PRIEST ├óΓé¼ΓÇ£ 11. Desert Plains.wav

     Peak level 94.7 %
     Extraction speed 3.1 X
     Track quality 100.0 %
     Test CRC E9B56EED
     Copy CRC E9B56EED
     Copy OK

Track 12

     Filename C:\├É┼ô├É┬╛├æΓÇÿ\1982.12.12. USA. AZ. Tennessie. Memphis\12. JUDAS PRIEST ├óΓé¼ΓÇ£ 12. The Ripper.wav

     Peak level 96.6 %
     Extraction speed 3.0 X
     Track quality 100.0 %
     Test CRC BEC5AB39
     Copy CRC BEC5AB39
     Copy OK

Track 13

     Filename C:\├É┼ô├É┬╛├æΓÇÿ\1982.12.12. USA. AZ. Tennessie. Memphis\13. JUDAS PRIEST ├óΓé¼ΓÇ£ 13. Living After Midnight.wav

     Peak level 95.9 %
     Extraction speed 2.8 X
     Track quality 99.9 %
     Test CRC E1947F88
     Copy CRC E1947F88
     Copy OK

Track 14

     Filename C:\├É┼ô├É┬╛├æΓÇÿ\1982.12.12. USA. AZ. Tennessie. Memphis\14. JUDAS PRIEST ├óΓé¼ΓÇ£ 14. The Green Manalishi (with the Two Pronged Clown).wav

     Peak level 97.4 %
     Extraction speed 2.8 X
     Track quality 99.9 %
     Test CRC F9118687
     Copy CRC F9118687
     Copy OK

Track 15

     Filename C:\├É┼ô├É┬╛├æΓÇÿ\1982.12.12. USA. AZ. Tennessie. Memphis\15. JUDAS PRIEST ├óΓé¼ΓÇ£ 15. Hell Bent For Leather.wav

     Peak level 97.4 %
     Extraction speed 3.2 X
     Track quality 100.0 %
     Test CRC AFD873E9
     Copy CRC AFD873E9
     Copy OK

No errors occurred

End of status report
